<?xml version="1.0" standalone="no"?>
<!DOCTYPE svg PUBLIC "-//W3C//DTD SVG 20010904//EN"
 "http://www.w3.org/TR/2001/REC-SVG-20010904/DTD/svg10.dtd">
<svg version="1.0" xmlns="http://www.w3.org/2000/svg"
 width="512.000000pt" height="512.000000pt" viewBox="0 0 512.000000 512.000000"
 preserveAspectRatio="xMidYMid meet">

<g transform="translate(0.000000,512.000000) scale(0.100000,-0.100000)"
fill="#000000" stroke="none">
<path d="M777 4856 c-69 -19 -151 -80 -190 -140 -96 -147 -107 -189 -61 -225
54 -43 89 -25 143 71 45 83 80 120 133 142 130 55 274 -59 254 -200 -4 -33
-72 -160 -272 -507 -147 -254 -278 -477 -292 -495 -90 -122 -274 -97 -328 43
-31 82 -22 105 161 421 180 311 191 339 146 375 -31 26 -73 24 -98 -3 -36 -40
-343 -581 -358 -632 -46 -155 31 -327 179 -397 80 -38 146 -45 229 -24 l66 17
54 -33 54 -32 6 -76 c8 -92 216 -880 252 -950 51 -101 149 -162 270 -169 108
-5 179 21 251 92 92 93 115 206 73 368 -11 44 -19 82 -17 83 2 2 44 -20 93
-49 l90 -52 6 -485 c6 -516 6 -521 60 -645 33 -79 106 -180 174 -242 l65 -59
0 -90 0 -89 -43 -46 c-72 -74 -92 -126 -92 -238 0 -84 3 -101 28 -148 37 -70
97 -128 166 -161 l56 -26 610 0 610 0 67 33 c124 61 190 169 190 310 -1 89
-30 159 -96 230 -45 48 -46 51 -46 113 0 64 0 65 37 84 21 11 84 64 140 119
80 76 103 104 103 125 0 56 -56 94 -103 70 -12 -7 -58 -46 -103 -89 -44 -42
-107 -91 -141 -109 -71 -38 -83 -59 -83 -146 l0 -65 -575 0 -575 0 0 100 0 99
-70 56 c-118 94 -186 203 -216 344 -12 60 -14 188 -12 801 3 718 3 729 24 756
68 92 170 92 238 0 20 -26 21 -43 26 -421 6 -436 4 -425 70 -427 25 -1 40 6
57 26 l23 27 0 471 c0 411 2 474 16 504 45 95 184 100 245 8 18 -27 19 -56 19
-506 l0 -477 23 -27 c28 -32 78 -37 105 -10 15 15 17 66 22 556 5 524 6 539
26 566 35 48 70 67 117 67 56 0 104 -27 128 -73 18 -33 19 -67 19 -557 0 -287
3 -529 6 -538 10 -26 63 -45 93 -34 51 20 50 11 51 517 0 510 -1 500 54 551
36 34 118 40 163 12 71 -45 68 -7 71 -792 2 -690 3 -707 22 -724 11 -10 34
-18 51 -18 25 0 52 21 167 136 81 79 153 143 175 152 120 50 247 -34 247 -165
0 -21 -5 -51 -10 -67 -6 -15 -76 -93 -155 -173 -162 -163 -177 -189 -132 -234
51 -51 67 -42 239 132 191 192 203 212 203 342 0 79 -4 103 -24 142 -32 66
-93 125 -159 156 -48 23 -71 27 -142 27 -108 0 -156 -22 -257 -118 l-73 -70 0
134 1 134 211 120 c410 233 456 263 532 338 107 105 173 230 200 376 l12 64
76 45 77 44 67 -17 c84 -21 150 -14 230 24 146 69 225 240 181 392 -23 79
-563 1012 -618 1068 -67 68 -136 96 -239 95 -101 -1 -156 -21 -225 -85 -56
-52 -83 -94 -104 -167 -15 -51 -22 -59 -71 -88 l-55 -32 -49 25 c-75 38 -102
46 -521 160 -458 124 -490 128 -599 74 -71 -35 -121 -86 -158 -160 -33 -68
-33 -207 1 -271 57 -106 123 -158 246 -191 112 -30 113 -31 52 -63 l-53 -29
-367 212 c-202 117 -396 223 -430 236 -144 54 -311 57 -467 10 l-88 -28 -76
44 c-67 39 -77 48 -82 79 -19 101 -106 210 -201 251 -61 26 -163 33 -226 15z
m3548 -155 c22 -10 52 -31 66 -47 14 -16 149 -242 299 -503 296 -515 298 -520
266 -606 -54 -140 -238 -165 -329 -43 -13 18 -145 242 -292 498 -201 349 -269
475 -273 506 -16 144 133 255 263 195z m-1113 -177 c411 -110 436 -118 509
-164 25 -17 56 -30 68 -30 13 0 51 16 85 35 l63 35 11 -24 c15 -34 532 -929
543 -941 19 -20 6 -35 -71 -80 -54 -31 -81 -54 -84 -68 -3 -12 -11 -60 -20
-107 -22 -120 -71 -214 -155 -298 -57 -56 -112 -92 -346 -227 -152 -88 -281
-161 -285 -163 -5 -2 -10 171 -12 385 l-3 388 -28 57 c-16 33 -49 76 -76 100
-45 40 -49 47 -54 100 -7 70 -47 149 -98 191 -20 17 -116 76 -213 133 -172 99
-177 103 -154 117 12 8 59 36 103 62 44 26 83 52 87 59 15 23 8 76 -12 93 -16
14 -177 62 -357 108 -33 8 -94 65 -109 102 -20 46 -17 100 7 150 33 68 106
108 179 97 19 -3 209 -53 422 -110z m-1946 -175 c80 -47 98 -47 214 -3 67 26
87 29 190 28 98 0 125 -4 181 -26 97 -36 1307 -736 1330 -770 11 -14 22 -40
25 -57 6 -29 5 -31 -22 -31 -16 0 -53 -11 -83 -25 -30 -14 -55 -24 -55 -23
-18 33 -69 87 -104 109 -69 44 -140 55 -223 35 l-67 -17 -139 81 c-80 46 -151
80 -166 80 -61 0 -91 -85 -44 -127 12 -11 68 -46 125 -78 56 -31 104 -61 107
-65 12 -20 -17 -19 -57 2 -30 16 -65 24 -116 26 -66 4 -79 1 -137 -27 -70 -35
-115 -82 -142 -149 -15 -35 -22 -42 -38 -36 -110 34 -127 36 -192 20 -80 -19
-142 -62 -181 -123 -46 -72 -52 -111 -52 -320 0 -106 -2 -193 -5 -193 -3 0
-67 36 -143 80 -154 89 -187 97 -221 54 -12 -15 -21 -32 -21 -39 0 -7 20 -89
45 -182 25 -92 45 -188 45 -213 0 -59 -34 -118 -85 -148 -85 -49 -212 -12
-251 71 -8 18 -62 210 -120 427 -84 316 -106 413 -110 485 -8 133 -6 130 -78
170 l-64 36 105 182 c58 100 186 323 286 495 99 171 183 312 187 312 4 0 39
-18 76 -41z m1994 -3589 c128 -65 138 -248 18 -328 l-42 -27 -575 -3 -575 -3
-50 25 c-67 33 -99 80 -104 155 -6 89 37 157 119 190 14 6 263 10 597 10 553
1 574 0 612 -19z"/>
</g>
</svg>
