<?xml version="1.0" standalone="no"?>
<!DOCTYPE svg PUBLIC "-//W3C//DTD SVG 20010904//EN"
 "http://www.w3.org/TR/2001/REC-SVG-20010904/DTD/svg10.dtd">
<svg version="1.0" xmlns="http://www.w3.org/2000/svg"
 width="512.000000pt" height="512.000000pt" viewBox="0 0 512.000000 512.000000"
 preserveAspectRatio="xMidYMid meet">

<g transform="translate(0.000000,512.000000) scale(0.100000,-0.100000)"
fill="#000000" stroke="none">
<path d="M3425 4759 c-726 -65 -1333 -118 -1348 -118 -16 -1 -39 -12 -52 -26
-25 -24 -25 -26 -25 -215 0 -189 0 -191 25 -215 22 -23 32 -25 120 -25 l95 0
0 -640 0 -640 80 0 80 0 0 640 0 640 1040 0 1040 0 0 -1920 0 -1920 -260 0
c-143 0 -260 2 -260 5 0 4 8 20 17 38 12 22 17 57 17 112 1 95 -15 132 -95
219 -49 54 -52 60 -60 130 -16 146 -51 227 -129 300 -108 101 -273 100 -382
-2 -77 -72 -111 -151 -127 -289 -9 -81 -10 -84 -60 -139 -109 -119 -126 -215
-66 -356 7 -17 -17 -18 -414 -18 l-421 0 0 535 0 536 -25 24 -24 25 -271 0
-271 0 -24 -25 -25 -24 0 -536 0 -535 -120 0 -120 0 2 707 3 707 478 209 478
210 477 -209 477 -209 3 -228 2 -227 80 0 80 0 0 190 c0 105 2 190 4 190 2 0
34 -14 71 -30 81 -36 108 -37 140 -5 l25 24 0 229 c0 204 -2 232 -17 251 -26
30 -1321 594 -1353 588 -47 -8 -1315 -568 -1332 -589 -16 -18 -18 -46 -18
-250 l0 -229 25 -24 c32 -32 59 -31 140 5 37 16 69 30 71 30 2 0 4 -301 4
-670 l0 -670 -280 0 -280 0 0 680 0 680 80 0 80 0 0 80 0 80 -240 0 -240 0 0
880 0 880 880 0 880 0 0 80 0 80 -262 0 -262 0 -161 160 -161 160 -353 0 -352
0 -24 -25 c-24 -23 -25 -29 -25 -160 l0 -135 -135 0 c-131 0 -137 -1 -160 -25
l-25 -24 0 -991 0 -991 25 -24 c23 -24 29 -25 160 -25 l135 0 0 -680 0 -680
-160 0 -160 0 0 -80 0 -80 2400 0 2400 0 0 80 0 80 -160 0 -160 0 0 1920 0
1920 95 0 c88 0 98 2 120 25 l25 24 0 311 0 311 -25 24 c-19 19 -34 25 -67 24
-24 -1 -637 -55 -1363 -120z m1295 -244 l0 -195 -1280 0 -1280 0 0 85 c0 81 1
85 23 85 21 0 1342 116 2092 184 204 18 387 34 408 35 l37 1 0 -195z m-3475
-675 l80 -80 -343 0 -342 0 0 80 0 80 263 0 262 0 80 -80z m1666 -1546 c321
-141 590 -258 597 -261 8 -4 12 -37 12 -118 l0 -112 -591 258 c-325 143 -598
259 -608 259 -14 0 -1159 -495 -1192 -516 -5 -3 -9 42 -9 109 l0 114 593 261
c325 143 597 260 603 261 6 1 274 -114 595 -255z m-831 -1494 l0 -480 -160 0
-160 0 0 480 0 480 160 0 160 0 0 -480z m1500 225 c57 -29 86 -95 100 -221 10
-96 32 -144 100 -219 27 -30 52 -66 56 -80 16 -63 -22 -131 -89 -164 -39 -19
-61 -21 -225 -21 -165 0 -187 2 -227 21 -50 24 -82 61 -91 108 -10 47 2 77 56
136 70 77 90 123 100 224 5 47 13 99 19 115 37 96 125 140 201 101z"/>
<path d="M2665 3895 l-25 -24 0 -271 0 -271 25 -24 24 -25 271 0 271 0 24 25
25 24 0 271 0 271 -25 24 -24 25 -271 0 -271 0 -24 -25z m455 -295 l0 -160
-160 0 -160 0 0 160 0 160 160 0 160 0 0 -160z"/>
<path d="M3625 3895 l-25 -24 0 -271 0 -271 25 -24 24 -25 271 0 271 0 24 25
25 24 0 271 0 271 -25 24 -24 25 -271 0 -271 0 -24 -25z m455 -295 l0 -160
-160 0 -160 0 0 160 0 160 160 0 160 0 0 -160z"/>
<path d="M505 3415 l-25 -24 0 -671 0 -671 25 -24 c23 -24 29 -25 160 -25
l135 0 0 80 0 80 -80 0 -80 0 0 560 0 560 280 0 280 0 0 -400 0 -400 80 0 80
0 0 400 0 400 360 0 360 0 0 80 0 80 -775 0 -776 0 -24 -25z"/>
<path d="M2665 3015 c-24 -23 -25 -29 -25 -160 l0 -135 80 0 80 0 0 80 0 80
160 0 160 0 0 -200 0 -200 80 0 80 0 0 255 0 256 -25 24 -24 25 -271 0 -271 0
-24 -25z"/>
<path d="M3625 3015 l-25 -24 0 -271 0 -271 25 -24 24 -25 271 0 271 0 24 25
25 24 0 271 0 271 -25 24 -24 25 -271 0 -271 0 -24 -25z m455 -295 l0 -160
-160 0 -160 0 0 160 0 160 160 0 160 0 0 -160z"/>
<path d="M3840 2080 l0 -80 120 0 120 0 0 -160 0 -160 -120 0 -120 0 0 -80 0
-80 175 0 c173 0 176 0 200 25 l25 24 0 271 0 271 -25 24 c-24 25 -27 25 -200
25 l-175 0 0 -80z"/>
<path d="M1840 1680 l0 -80 80 0 80 0 0 80 0 80 -80 0 -80 0 0 -80z"/>
<path d="M800 1360 l0 -80 80 0 80 0 0 80 0 80 -80 0 -80 0 0 -80z"/>
<path d="M2425 1255 l-25 -24 0 -231 0 -231 25 -24 24 -25 271 0 271 0 24 25
25 24 0 231 0 231 -25 24 -24 25 -271 0 -271 0 -24 -25z m455 -255 l0 -120
-160 0 -160 0 0 120 0 120 160 0 160 0 0 -120z"/>
</g>
</svg>
